<?xml version="1.0" encoding="utf-8"?>
<svg xmlns="http://www.w3.org/2000/svg" width="596.917" height="441.426" viewBox="0 0 596.917 441.426">
  <g id="Group_35776" data-name="Group 35776" transform="translate(-194 -1010)">
    <g id="Group_35766" data-name="Group 35766" transform="translate(625.77 927)">
      <g id="Group_35765" data-name="Group 35765" transform="translate(-381.271 147.184)">
        <g id="Group_35764" data-name="Group 35764" transform="translate(0 0)">
          <g id="Group_35770" data-name="Group 35770" transform="translate(0)">
            <path id="Path_60294" data-name="Path 60294" d="M1944.724,1444.6a65.411,65.411,0,0,1-12.917-14.134l28.3-17.874s-.039-.066-.121-.188a36.683,36.683,0,0,0,7.093,7.242,44.188,44.188,0,0,0,20.785,9.057c9.9,1.576,20.11-1.724,26.934-4.769a73.176,73.176,0,0,0,12.755-7.235l25.093,4.848-4.717,21.7c-9.8,7.522-25.39,14.955-39.833,17.822a75.663,75.663,0,0,1-63.369-16.471" transform="translate(-1518.134 -1114.88)" fill="#b75742"/>
            <path id="Path_60295" data-name="Path 60295" d="M2119.55,576.51l6.642-3.442,6.6,3.519a1.028,1.028,0,0,0,1.5-1.075l-1.221-7.379,5.387-5.189a1.028,1.028,0,0,0-.56-1.756l-7.4-1.119-3.272-6.726a1.028,1.028,0,0,0-1.843-.011l-3.35,6.688-7.409,1.032a1.028,1.028,0,0,0-.58,1.75l5.327,5.252-1.307,7.364a1.028,1.028,0,0,0,1.485,1.092" transform="translate(-1652.013 -482.247)" fill="#86b1f2"/>
            <rect id="Rectangle_7783" data-name="Rectangle 7783" width="326.793" height="34.201" transform="translate(126.816 229.378)" fill="#f47257"/>
            <path id="Path_60296" data-name="Path 60296" d="M1096.647,1117.73a631.156,631.156,0,0,0-235.911-70.673q4.567-53.475,9.134-106.951a729.752,729.752,0,0,1,272.766,81.715l-45.989,95.909" transform="translate(-729.96 -767.302)" fill="#3c8f7c"/>
            <path id="Path_60297" data-name="Path 60297" d="M888.163,1049.858q3.112-33.351,6.224-66.7c8.636.885,16.373-4.686,17.313-12.673A724.426,724.426,0,0,1,1140.4,1039c-3.215,7.305.557,16.324,8.338,20.358l-28.233,60.108a13.578,13.578,0,0,0-18.846,6.658,636.164,636.164,0,0,0-200.832-60.165,14.389,14.389,0,0,0-12.662-16.1" transform="translate(-750.143 -789.658)" fill="#96d9c9"/>
            <path id="Path_60298" data-name="Path 60298" d="M1326.1,1147.077a37.03,37.03,0,0,1-46.126,23.029c-18.987-5.885-31.189-25.714-26.919-45.572,4.257-19.823,25.334-31.7,46.7-25.095,21.372,6.583,32.979,28.549,26.345,47.638" transform="translate(-1018.032 -883.208)" fill="#50bfa5"/>
            <path id="Path_60299" data-name="Path 60299" d="M1334.192,1193.561q.8-3.2,1.592-6.4a34.679,34.679,0,0,1-7.745-3.625,4.133,4.133,0,0,1-1.491-5.366l.118-.225a3.972,3.972,0,0,1,5.73-1.4,25.5,25.5,0,0,0,7.1,3.286c3.88,1.086,6.915.385,7.618-2.3.663-2.55-1.1-4.816-5.8-7.93-6.789-4.483-11.122-9.161-9.626-15.739,1.351-5.958,6.852-9.523,14.864-8.823q.787-3.2,1.572-6.41,3.534.979,7.06,1.995-.755,2.961-1.511,5.922a32.625,32.625,0,0,1,6.272,2.793,4.113,4.113,0,0,1,1.635,5.579,4.172,4.172,0,0,1-5.829,1.234,23.3,23.3,0,0,0-5.985-2.637c-4.6-1.306-6.55.188-7.01,2.075-.547,2.232,1.581,4.307,6.957,8.167,7.567,5.236,9.832,9.974,8.17,15.986-1.657,5.959-7.3,9.7-15.377,8.813q-.886,3.43-1.775,6.858-3.265-.94-6.539-1.846" transform="translate(-1072.407 -913.395)" fill="#3c8f7c"/>
            <path id="Path_60300" data-name="Path 60300" d="M1054.461,1138.646q-28.174-6.5-56.844-10.577.663-5.142,1.325-10.283,29.047,4.126,57.639,10.725Z" transform="translate(-830.687 -898.061)" fill="#50bfa5"/>
            <path id="Path_60301" data-name="Path 60301" d="M1618.807,1301.538q-26.219-12.819-53.307-23.327l3.425-9.733q27.444,10.648,54.054,23.654-2.086,4.7-4.172,9.407" transform="translate(-1248.578 -1008.959)" fill="#50bfa5"/>
            <path id="Path_60302" data-name="Path 60302" d="M1143.067,855.383c-76.032,15.882-148.433,47.708-213.39,93.8l-52.652-90.837c75.1-53.3,158.816-90.1,246.726-108.459q9.658,52.745,19.316,105.491" transform="translate(-741.947 -627.318)" fill="#3c8f7c"/>
            <path id="Path_60303" data-name="Path 60303" d="M965.1,957.284,932.653,900.3c6.866-4.787,9.483-14.135,5.742-21.083a653.983,653.983,0,0,1,206.866-90.936,14.449,14.449,0,0,0,17.46,10.884l12.54,65.738c-7.346,1.6-11.9,9.429-10.214,17.275a574.3,574.3,0,0,0-181.66,79.856c-3.738-6.943-11.968-9.151-18.286-4.747" transform="translate(-782.882 -655.568)" fill="#96d9c9"/>
            <path id="Path_60304" data-name="Path 60304" d="M1345.437,962.795c5.718,19.428-3.992,40.2-21.259,47.635-17.284,7.393-37.3-.614-45.178-19.116-7.866-18.467,1.1-41.311,20.536-49.643,19.432-8.355,40.2,1.728,45.9,21.123" transform="translate(-1035.656 -766.278)" fill="#50bfa5"/>
            <path id="Path_60305" data-name="Path 60305" d="M1374.241,1035.9q-1.19-3.053-2.381-6.1a30.159,30.159,0,0,1-7.73,2.042,3.755,3.755,0,0,1-4.081-3.318c-.013-.085-.025-.169-.038-.254a4.106,4.106,0,0,1,3.453-4.755,22.2,22.2,0,0,0,7.065-1.9c3.468-1.6,5.318-4.091,4.344-6.676-.927-2.449-3.49-3.127-8.685-2.617-7.5.752-13.3-.212-15.846-6.393-2.311-5.6-.23-11.927,6.073-16.465q-1.2-3.048-2.4-6.1,3.153-1.469,6.32-2.9l2.173,5.67a28.472,28.472,0,0,1,6.181-1.767,3.735,3.735,0,0,1,4.3,3.4,4.3,4.3,0,0,1-3.617,4.687,20.357,20.357,0,0,0-5.882,1.709c-4.121,1.886-4.732,4.314-4.023,6.106.835,2.122,3.559,2.419,9.671,2.07,8.493-.649,12.8,1.678,14.908,7.514,2.087,5.792-.005,12.356-6.456,16.784q1.251,3.29,2.5,6.58-2.933,1.329-5.852,2.69" transform="translate(-1089.576 -797.001)" fill="#3c8f7c"/>
            <path id="Path_60306" data-name="Path 60306" d="M1107.464,1136.542q-24.407,12.745-47.834,27.732l-4.732-9.018q23.733-15.187,48.5-28.12l4.063,9.406" transform="translate(-872.838 -904.942)" fill="#50bfa5"/>
            <path id="Path_60307" data-name="Path 60307" d="M1618.811,938.441q-26.473,6.478-52.3,15.347l-2.877-9.916q26.172-8.984,53.037-15.562,1.073,5.066,2.145,10.131" transform="translate(-1247.201 -758.621)" fill="#50bfa5"/>
            <path id="Path_60308" data-name="Path 60308" d="M1193.505,1098.828a578.346,578.346,0,0,0-233.392,34.2L929.08,1031.155a668.7,668.7,0,0,1,269.854-39.543q-2.715,53.608-5.429,107.215" transform="translate(-780.253 -804.311)" fill="#3c8f7c"/>
            <path id="Path_60309" data-name="Path 60309" d="M991.032,1127.708l-18.89-63.756c7.922-2.812,12.694-11.166,10.6-18.882A663.653,663.653,0,0,1,1209,1011.916c-.16,8.045,6.454,14.731,14.773,15.163q-1.442,33.473-2.884,66.947c-7.656-.4-13.99,5.971-14.15,14.01a582.8,582.8,0,0,0-198.688,29.114c-2.089-7.71-9.732-12.03-17.022-9.443" transform="translate(-811.942 -819.956)" fill="#96d9c9"/>
            <path id="Path_60310" data-name="Path 60310" d="M1411.746,1101.769c1.143,20.318-13.322,37.844-32.173,40.464-18.856,2.573-36.837-10.485-40.333-30.48-3.5-19.958,10.711-39.69,31.923-42.6,21.21-2.933,39.447,12.332,40.582,32.615" transform="translate(-1081.691 -862.005)" fill="#50bfa5"/>
            <path id="Path_60311" data-name="Path 60311" d="M1436.573,1163.983q-.469-3.269-.939-6.539a31.166,31.166,0,0,1-8.138-.073,3.943,3.943,0,0,1-3.272-4.294c.007-.085.014-.17.021-.256a3.99,3.99,0,0,1,4.531-3.686,22.927,22.927,0,0,0,7.447.034c3.811-.633,6.225-2.549,5.861-5.308-.348-2.616-2.731-3.952-8-4.836-7.611-1.261-13.133-3.731-14.22-10.389-.987-6.029,2.55-11.6,9.856-14.324q-.478-3.268-.959-6.535,3.467-.586,6.941-1.134.417,3.032.833,6.063a29.3,29.3,0,0,1,6.538-.071,3.919,3.919,0,0,1,3.477,4.427,4.176,4.176,0,0,1-4.678,3.577,20.986,20.986,0,0,0-6.229.094c-4.524.732-5.7,2.92-5.41,4.843.334,2.275,2.965,3.284,9.105,4.567,8.571,1.624,12.294,5.018,13.027,11.226.719,6.158-2.884,11.957-10.31,14.531q.473,3.516.944,7.031-3.217.508-6.428,1.051" transform="translate(-1141.29 -889.859)" fill="#3c8f7c"/>
            <path id="Path_60312" data-name="Path 60312" d="M1144.872,1218.408q-27.165,5.863-53.88,14.156l-2.59-9.983q27.065-8.4,54.634-14.353.918,5.09,1.836,10.18" transform="translate(-897.494 -964.619)" fill="#50bfa5"/>
            <path id="Path_60313" data-name="Path 60313" d="M1706.077,1165.017q-27.753-.75-55.426.984-.271-5.18-.542-10.36,28.037-1.755,56.2-1-.117,5.187-.235,10.374" transform="translate(-1310.84 -925.016)" fill="#50bfa5"/>
            <rect id="Rectangle_7784" data-name="Rectangle 7784" width="326.793" height="143.796" transform="translate(126.816 229.378)" fill="#f47257"/>
            <path id="Path_60314" data-name="Path 60314" d="M1810.415,1559.848h-80.864a6.8,6.8,0,0,0,0,13.593h-10.486a6.8,6.8,0,0,0,0,13.593h1.817a6.65,6.65,0,0,0-6.492,6.8,7.044,7.044,0,0,0,.547,2.729h95.479Z" transform="translate(-1356.806 -1223.385)" fill="#b75742"/>
            <rect id="Rectangle_7785" data-name="Rectangle 7785" width="297.486" height="11.166" transform="translate(138.859 236.458)" fill="#b75742"/>
            <path id="Path_60315" data-name="Path 60315" d="M977.355,1443.235H843.107a10.978,10.978,0,0,1-10.979-10.977v-67.351a10.978,10.978,0,0,1,10.979-10.977H977.355a10.978,10.978,0,0,1,10.979,10.977v67.351a10.978,10.978,0,0,1-10.979,10.977" transform="translate(-708.908 -1071.845)" fill="#3c8f7c"/>
            <rect id="Rectangle_7786" data-name="Rectangle 7786" width="38.467" height="22.361" transform="translate(133.263 299.844)" fill="#f7cc7f"/>
            <rect id="Rectangle_7787" data-name="Rectangle 7787" width="68.215" height="4.174" transform="translate(201.323 294.18)" fill="#f7cc7f"/>
            <rect id="Rectangle_7788" data-name="Rectangle 7788" width="125.54" height="5.157" transform="translate(138.928 341.882)" fill="#f7cc7f"/>
            <rect id="Rectangle_7789" data-name="Rectangle 7789" width="125.54" height="5.157" transform="translate(138.928 354.025)" fill="#f7cc7f"/>
            <rect id="Rectangle_7790" data-name="Rectangle 7790" width="138.707" height="3.707" transform="translate(142.638 266.092)" fill="#b75742"/>
            <path id="Path_60316" data-name="Path 60316" d="M1670.611,981.919a30.889,30.889,0,1,1-43.031-7.538,30.881,30.881,0,0,1,43.031,7.538" transform="translate(-1284.586 -788.399)" fill="#fae0b2"/>
            <path id="Path_60317" data-name="Path 60317" d="M1680.389,998.62a25.92,25.92,0,1,1-36.109-6.325,25.914,25.914,0,0,1,36.109,6.325" transform="translate(-1298.432 -802.246)" fill="#f7cc7f"/>
            <path id="Path_60318" data-name="Path 60318" d="M1703.864,1051.386l-1.13-4.177a21.024,21.024,0,0,1-5.519.485,2.633,2.633,0,0,1-2.5-2.6l0-.167a2.628,2.628,0,0,1,2.79-2.663,15.341,15.341,0,0,0,4.992-.468c2.506-.677,3.959-2.108,3.484-3.867-.452-1.671-2.145-2.345-5.7-2.565-5.133-.31-8.937-1.641-10.091-5.906-1.047-3.869.859-7.639,5.314-9.835l-1.129-4.176,4.309-1.165,1.047,3.869a19.427,19.427,0,0,1,4.169-.506,2.633,2.633,0,1,1-.057,5.266,14.005,14.005,0,0,0-4.012.5c-2.858.773-3.448,2.254-3.115,3.485.392,1.451,2.181,1.958,6.3,2.354,5.732.432,8.5,2.279,9.567,6.236,1.058,3.913-.808,8-5.626,10.25l1.212,4.484Z" transform="translate(-1340.132 -821.893)" fill="#fff"/>
            <path id="Path_60319" data-name="Path 60319" d="M1780.951,1356.235a30.889,30.889,0,1,1-43.031-7.538,30.881,30.881,0,0,1,43.031,7.538" transform="translate(-1365.782 -1063.867)" fill="#fae0b2"/>
            <path id="Path_60320" data-name="Path 60320" d="M1790.729,1372.936a25.92,25.92,0,1,1-36.109-6.325,25.915,25.915,0,0,1,36.109,6.325" transform="translate(-1379.628 -1077.714)" fill="#f7cc7f"/>
            <path id="Path_60321" data-name="Path 60321" d="M1814.2,1425.7l-1.13-4.176a21.027,21.027,0,0,1-5.519.485,2.634,2.634,0,0,1-2.5-2.6l0-.167a2.629,2.629,0,0,1,2.791-2.663,15.348,15.348,0,0,0,4.991-.468c2.507-.677,3.96-2.109,3.485-3.867-.452-1.671-2.145-2.345-5.7-2.565-5.133-.311-8.938-1.641-10.092-5.906-1.046-3.869.859-7.639,5.314-9.835l-1.13-4.177,4.309-1.165,1.046,3.869a19.436,19.436,0,0,1,4.169-.506,2.633,2.633,0,1,1-.057,5.266,14.007,14.007,0,0,0-4.011.5c-2.858.773-3.449,2.254-3.115,3.485.392,1.451,2.181,1.958,6.3,2.354,5.732.431,8.5,2.279,9.567,6.235,1.058,3.913-.808,8-5.627,10.25l1.213,4.484Z" transform="translate(-1421.328 -1097.362)" fill="#fff"/>
            <path id="Path_60322" data-name="Path 60322" d="M1559.258,1227.562a30.891,30.891,0,1,1-30.891-30.885,30.888,30.888,0,0,1,30.891,30.885" transform="translate(-1198.52 -956.118)" fill="#fae0b2"/>
            <path id="Path_60323" data-name="Path 60323" d="M1568.133,1241.408a25.922,25.922,0,1,1-25.922-25.917,25.92,25.92,0,0,1,25.922,25.917" transform="translate(-1212.365 -969.964)" fill="#f7cc7f"/>
            <path id="Path_60324" data-name="Path 60324" d="M1571.978,1279.5l1.475-4.068a21,21,0,0,1-4.8-2.772,2.632,2.632,0,0,1-.552-3.559l.094-.138a2.629,2.629,0,0,1,3.814-.577,15.321,15.321,0,0,0,4.355,2.484c2.441.885,4.453.549,5.074-1.164.59-1.627-.408-3.151-3.188-5.371-4.023-3.2-6.373-6.476-4.867-10.63,1.366-3.768,5.093-5.759,10-5l1.475-4.068,4.2,1.522-1.366,3.768a19.46,19.46,0,0,1,3.7,1.98,2.634,2.634,0,1,1-3.073,4.278,13.986,13.986,0,0,0-3.568-1.9c-2.784-1.009-4.118-.136-4.552,1.063-.512,1.413.66,2.855,3.8,5.545,4.444,3.646,5.645,6.746,4.248,10.6-1.382,3.811-5.26,6.087-10.495,5.158l-1.584,4.368Z" transform="translate(-1250.157 -991.414)" fill="#fff"/>
            <rect id="Rectangle_7791" data-name="Rectangle 7791" width="139.91" height="74.968" transform="translate(296.436 289.254)" fill="#f48c7f"/>
            <path id="Path_60325" data-name="Path 60325" d="M1723.059,1566.644h0a6.65,6.65,0,0,0,6.492,6.8h-10.486a6.8,6.8,0,0,0,0,13.593h1.817a6.221,6.221,0,0,0-2.609.573h74.877v-27.759h-63.6a6.649,6.649,0,0,0-6.492,6.8" transform="translate(-1356.806 -1223.385)" fill="#b75742"/>
            <path id="Path_60326" data-name="Path 60326" d="M412.71,1684.458h0a2.117,2.117,0,0,0,2.034,2.192H921.993a2.2,2.2,0,0,0,0-4.384H414.744a2.117,2.117,0,0,0-2.034,2.192" transform="translate(-400.269 -1313.476)" fill="#bfbfbf"/>
            <path id="Path_60327" data-name="Path 60327" d="M1836.554,1680.464h-83.507a6.066,6.066,0,1,1,0-12.132h83.507a6.066,6.066,0,1,1,0,12.132" transform="translate(-1382.125 -1303.221)" fill="#f7cc7f"/>
            <path id="Path_60328" data-name="Path 60328" d="M1830.126,1634.524h-83.507a6.066,6.066,0,1,1,0-12.131h83.507a6.066,6.066,0,1,1,0,12.131" transform="translate(-1377.394 -1269.413)" fill="#fae0b2"/>
            <path id="Path_60329" data-name="Path 60329" d="M1867.226,1588.585h-83.507a6.066,6.066,0,1,1,0-12.131h83.507a6.066,6.066,0,1,1,0,12.131" transform="translate(-1404.695 -1235.606)" fill="#f7cc7f"/>
            <path id="Path_60330" data-name="Path 60330" d="M1663.935,626.93l1.062,7.186-11.376,2.986.257,10.7-8.148,3.627,1.836,4.124,10.9-4.85-.244-10.139,11.835-3.107-1.6-10.814Z" transform="translate(-1307.617 -536.615)" fill="#466eb6"/>
            <path id="Path_60331" data-name="Path 60331" d="M1292.159,411.7l2.192-5.44a28.491,28.491,0,0,1-6.364-3.985,3.568,3.568,0,0,1-.578-4.847l.134-.183a3.563,3.563,0,0,1,5.194-.6,20.782,20.782,0,0,0,5.78,3.572c3.264,1.315,6.006.956,6.928-1.335.877-2.176-.4-4.288-4.062-7.427-5.3-4.53-8.323-9.077-6.085-14.631,2.031-5.039,7.174-7.559,13.786-6.292l2.192-5.439,5.612,2.261-2.031,5.038a26.357,26.357,0,0,1,4.922,2.859,3.57,3.57,0,1,1-4.366,5.648,18.964,18.964,0,0,0-4.744-2.74c-3.722-1.5-5.571-.381-6.217,1.222-.761,1.889.758,3.9,4.887,7.692,5.845,5.15,7.325,9.407,5.248,14.56-2.054,5.1-7.416,7.994-14.463,6.485l-2.354,5.841Z" transform="translate(-1043.427 -344.135)" fill="#96d9c9"/>
            <path id="Path_60332" data-name="Path 60332" d="M1245.7,675.667a2.278,2.278,0,0,1-.391,2.871,22.425,22.425,0,0,1-7.118,4.292,18.023,18.023,0,0,1-13.86-.19,16.6,16.6,0,0,1-7.134-6.487l-2.633.988a1.731,1.731,0,0,1-2.229-1.012l-.025-.068a1.73,1.73,0,0,1,1.012-2.228l2.161-.811c-.347-.717-.591-1.164-.744-1.569a16.987,16.987,0,0,1-.684-2.439l-2.228.836a1.73,1.73,0,1,1-1.216-3.24l2.7-1.014a17.768,17.768,0,0,1,1.288-9.495,19.122,19.122,0,0,1,10.86-9.852,19.555,19.555,0,0,1,6.757-1.34,2.335,2.335,0,0,1,2.357,2.224l0,.04a2.34,2.34,0,0,1-2.256,2.442,16.75,16.75,0,0,0-5.255,1.114,12.457,12.457,0,0,0-7.088,6.357,10.384,10.384,0,0,0-.792,6.3l15.193-5.7a1.73,1.73,0,1,1,1.216,3.24l-15.867,5.954c.211.768.422,1.536.6,2.009.228.607.456,1.215.827,2l15.9-5.967a1.767,1.767,0,1,1,1.242,3.308l-15.226,5.713a11,11,0,0,0,4.458,3.872,12.168,12.168,0,0,0,9.749.115,19.069,19.069,0,0,0,5.07-2.858,2.279,2.279,0,0,1,3.352.589" transform="translate(-986.597 -550.059)" fill="#86b1f2"/>
            <path id="Path_60333" data-name="Path 60333" d="M1115.514,505.032l-6.9.7-2.353-10.972-10.212-.22-3.1-7.923-4.011,1.57,4.151,10.6,9.677.209,2.448,11.414,10.38-1.053Z" transform="translate(-897.888 -433.567)" fill="#50bfa5"/>
            <path id="Path_60334" data-name="Path 60334" d="M1468.61,491.581l7.38,2.433s11.7-3.791,12.853-6.175,1.478-8.169,3.142-8.327a5.041,5.041,0,0,1,5.649,4.343c.556,2.874-3.653,11.181-3,12.065.411.553,4.613,2.073,7.7,3.134a5.749,5.749,0,0,1,3.807,4.638v.006a3.166,3.166,0,0,1-1.978,3.4l-2.123.82.677,2.192a3.164,3.164,0,0,1-2,3.926l-1.642.55.525,1.335a3.163,3.163,0,0,1-2.044,4.183l-1.434.417.059.384a3.16,3.16,0,0,1-2.3,3.536l-1.425.374-19.654-6.485a14.008,14.008,0,0,1-4.982-2.892L1461.295,512a1.621,1.621,0,0,1-.76-1.971l6.051-17.422a1.617,1.617,0,0,1,2.025-1.023" transform="translate(-1171.269 -428.321)" fill="#fae0b2"/>
            <path id="Path_60335" data-name="Path 60335" d="M1004.414,749.692l1.563-7.743,7.266-3.1a1.085,1.085,0,0,0,.107-1.944l-6.882-3.878-.706-7.868a1.086,1.086,0,0,0-1.816-.7l-5.816,5.346-7.7-1.76a1.085,1.085,0,0,0-1.229,1.51l3.288,7.182-4.054,6.78a1.085,1.085,0,0,0,1.057,1.635l7.848-.907,5.2,5.95a1.086,1.086,0,0,0,1.882-.5" transform="translate(-823.812 -608.386)" fill="#f7cc7f"/>
            <path id="Path_60336" data-name="Path 60336" d="M658.685,1541.029s-9.684,6.98-11.209,9.063c-2.2,3,16.406,8.609,14.376,5.1-.467-.808-1.806-3.526-1.864-3.793-.312-1.43,3.634-5.281,3.634-5.281Z" transform="translate(-572.894 -1209.536)" fill="#f7a491"/>
            <path id="Path_60337" data-name="Path 60337" d="M662.915,1575.119l-6.576-9.29s-4.105-.954-8.32-5.694a15.408,15.408,0,0,0-6.117,4.578,107.26,107.26,0,0,0,11.185,10.081,31.064,31.064,0,0,0,9.578,5.438c5.557,1.878.251-5.113.251-5.113" transform="translate(-568.926 -1223.596)" fill="#f7cc7f"/>
            <path id="Path_60338" data-name="Path 60338" d="M370.471,1056.51s1.19,1.052,1.611,1.372c.494.376,2.056,1.391,2.056,1.391s5.652,3.214,5.843,2.791a2.8,2.8,0,0,0-.1-1.964c-.279-.321-1.094-.652-1.373-.973a1.038,1.038,0,0,1-.015-1.327c.359-.358,2.291.7,2.291.7a7.211,7.211,0,0,1,2.219,1.919c2.266,3.636,1.579,3.848,1.882,4.307.358.542,8.286,4.141,8.286,4.141s23.7,9.851,24.978,10.388h.016a6.881,6.881,0,0,1-.716,3.078c-.567,3.385-1.574,3.61-2.343,6.875-3.636-1.839-28.8-15.7-31.358-17.143,0,0-3.832-.655-6.227-1.144s-4.482-2-5.138-2.245a22.522,22.522,0,0,1-4.6-2.785c-2.031-1.574.591-.981.591-.981s4.267,2.262,4.378,1.9c.085-.277-2.315-1.378-4.579-3.1-.582-.442-1.155-.88-1.678-1.287-1.373-1.067-1.134-2.187.476-1.292a17.98,17.98,0,0,1,2.112,1.345,14.773,14.773,0,0,0,2.05,1.148,19.443,19.443,0,0,0,2.12,1.17c0-.085.338-.113-.265-.6-.726-.586-2.535-1.5-3.538-2.444-.569-.534-1.823-1.581-1.823-1.581a15.7,15.7,0,0,1-1.532-2.052c.426-.691,1.889.328,2.569,1.15a12.072,12.072,0,0,1,1.987,1.449s3.109,1.735,3.349,1.31c.1-.181-1.684-1.468-3.245-3-1.449-1.419-2.687-3.08-2.457-3.4.39-.54,2.163.871,2.163.871" transform="translate(-365.608 -852.234)" fill="#f8a492"/>
            <path id="Path_60339" data-name="Path 60339" d="M634.339,1264.65l1.533,7.574,38.507,35.018-27.563,27.889,7.443,7.6s40.708-29.887,42.176-33.8c2.259-6.03-29.181-45.972-29.181-45.972Z" transform="translate(-563.36 -1004.898)" fill="#b75742"/>
            <path id="Path_60340" data-name="Path 60340" d="M506.789,1616.2s-7.768,8.464-9.294,10.547c-2.2,3,14.208,7.428,12.178,3.915-.467-.808-1.806-3.526-1.864-3.793-.312-1.43,3.634-5.281,3.634-5.281Z" transform="translate(-462.511 -1264.857)" fill="#f7a491"/>
            <path id="Path_60341" data-name="Path 60341" d="M512.258,1659.058l-10.692-3.906s-4.041,1.836-10.2.332a14.149,14.149,0,0,0-2.31,6.954s20.266,2.584,25.905.97-2.7-4.35-2.7-4.35" transform="translate(-456.449 -1293.522)" fill="#f7cc7f"/>
            <path id="Path_60342" data-name="Path 60342" d="M548.955,1274.305l1.729,47.784-34.167,41.884,9.244,5.061s37.8-32.433,41.946-41.468c2.574-5.6,11.235-56.256,11.235-56.256Z" transform="translate(-476.658 -1011.044)" fill="#f47458"/>
            <path id="Path_60343" data-name="Path 60343" d="M683.828,1073.85c-3.132-7.067-2.77-57.729-14.958-69.6-4.288.724-7.347,1.13-8.063,1.318-.636,5.219-1.336,24.37-1.766,41.922-.286,11.693.009,23.956-1.431,30.42-.893,4.006,29.079,2.391,26.218-4.064" transform="translate(-580.471 -814.51)" fill="#fae0b2"/>
            <path id="Path_60344" data-name="Path 60344" d="M491.217,1011.813c-3.422.78-5.941,1.328-10.426,7.952-4.293,6.341-13.826,21.388-13.826,21.388L441.855,1030l-1.174,12.715s28.406,14.764,32.414,13.433,15.276-17.8,16.109-18.911c.2-.261-.946,17.589-.946,20.441s-5.446,27.683-5.446,27.683,13.818,3.4,16.515-2.777c8.269-18.937,1.922-73.4,1.922-73.4s-7.571,2.07-10.033,2.631" transform="translate(-420.852 -818.136)" fill="#466eb6"/>
            <path id="Path_60345" data-name="Path 60345" d="M821.269,792.645c-1.055-.884-1.516-3-1.69-4.364l-.47-1.8c.428-.175,8.8-1.367,11.328-1.432a4.6,4.6,0,0,1,.29,1.9c-.376,2.064-3.011,15.462-3.011,15.462l-7.212.144s1.569-7.945.765-9.911" transform="translate(-699.329 -653.188)" fill="#f7a491"/>
            <path id="Path_60346" data-name="Path 60346" d="M710.992,887.368s4.948,14.077,9.02,12.049,26.948-25.345,27.174-26.471S749,843.2,749,843.2l-9.048-1.8-5.2,23.437s-16.739,16-20.133,17.578a6.286,6.286,0,0,0-3.619,4.958" transform="translate(-619.767 -694.658)" fill="#466eb6"/>
            <path id="Path_60347" data-name="Path 60347" d="M716.477,1071.719a15.341,15.341,0,0,0,5.574-.927s-5.216-29.394-8.248-58.541c-1.2-11.514-2.31-16.235-7.061-15.4-1.374.24-5.1,1.658-6.447,1.886,11.94,33.775,11.981,59.772,13.671,67.311.848,3.782,1.587,5.7,2.511,5.673" transform="translate(-611.896 -808.992)" fill="#466eb6"/>
            <path id="Path_60348" data-name="Path 60348" d="M670.868,963.51l1.251,5.1s.285,4.442-1.777,4.842c-2.487.482-6.184-3.24-6.184-3.24l-2.141-14.391Z" transform="translate(-583.728 -778.869)" fill="#f7a491"/>
            <path id="Path_60349" data-name="Path 60349" d="M670.868,963.51l1.251,5.1s.285,4.442-1.777,4.842c-2.487.482-6.184-3.24-6.184-3.24l-2.141-14.391Z" transform="translate(-583.728 -778.869)" fill="#f7a491"/>
            <path id="Path_60350" data-name="Path 60350" d="M662.1,956.075l8.829,7.62.934,3.812c-3.375-.812-8.186-4.525-9.764-11.432" transform="translate(-583.787 -779.053)" fill="#f47458"/>
            <path id="Path_60351" data-name="Path 60351" d="M669.009,905.936a5.214,5.214,0,0,1,4.808,3.605,45.31,45.31,0,0,1,1.926,7.388c.934,5.534-2.218,10.6-4.96,11s-9.276-1.412-10.721-9.251c-.619-3.361-1.434-7.768,1.33-10.084a12.43,12.43,0,0,1,7.617-2.663" transform="translate(-581.839 -742.155)" fill="#f7a491"/>
            <path id="Path_60352" data-name="Path 60352" d="M636.97,904.661s-9.668-8.615-10.09-15.344,5.795-10.335,11.111-10.522a36.092,36.092,0,0,1,6.505.335c5.326.672,8.777,3.032,7.562,7.394-1.631,5.857-12.684.916-14.944,2.734-1.865,1.5,1.159,5.109-.653,6.485-1.7,1.294-.835.855-.272,3.316a43.411,43.411,0,0,1,.781,5.6" transform="translate(-557.856 -722.16)" fill="#184655"/>
            <path id="Path_60353" data-name="Path 60353" d="M650.878,938.376c.24,1.613,1.225,2.8,2.2,2.659s1.574-1.568,1.335-3.18-1.225-2.8-2.2-2.659-1.574,1.568-1.335,3.181" transform="translate(-575.492 -763.679)" fill="#f7a491"/>
            <path id="Path_60354" data-name="Path 60354" d="M829.142,788.117a11.609,11.609,0,0,1,3.123,2.952s4.078-2.613,3.935-3.441c-.189-1.1-4.357.94-4.357.94Z" transform="translate(-706.711 -654.85)" fill="#f47458"/>
            <path id="Path_60355" data-name="Path 60355" d="M413.568,364.874,523.66,421.549c5.924,3.05,13.414.3,16.729-6.132L568.5,360.826c3.315-6.437,1.2-14.127-4.725-17.177L453.686,286.975c-5.924-3.05-13.414-.3-16.729,6.132L408.843,347.7c-3.314,6.437-1.2,14.127,4.725,17.177" transform="translate(-396.27 -285.729)" fill="#96d9c9"/>
            <rect id="Rectangle_7792" data-name="Rectangle 7792" width="18.64" height="147.954" transform="matrix(0.458, -0.889, 0.889, 0.458, 13.204, 60.742)" fill="#355389"/>
            <rect id="Rectangle_7793" data-name="Rectangle 7793" width="18.094" height="32.621" transform="translate(46.951 25.118) rotate(-62.707)" fill="#f7cc7f"/>
            <path id="Path_60356" data-name="Path 60356" d="M821.716,778.1c-.191-.518-.569-1.241-.383-1.524,1.174-1.793-.091-3.742-.945-2.217a9.581,9.581,0,0,0-1.29,3.849c.053.734.8,3.534.8,3.534a2.6,2.6,0,0,0,1.821-3.642" transform="translate(-699.316 -644.922)" fill="#f7a491"/>
            <path id="Path_60357" data-name="Path 60357" d="M2027.3,1504.215s-.678,8.438-.128,11.18c.295,1.468,1.934,4.491,1.182,5.873a3.744,3.744,0,0,1-1.612,1.727l-19.493.309c-1.062.017-.36-.655.5-1.274,1.4-1.013,2.532-1.683,7.009-3.812.292-.139,1.355-.8,1.738-1.034a13.408,13.408,0,0,0,2.788-2.422c1.4-1.532,1.522-8.963,1.522-8.963Z" transform="translate(-1573.259 -1182.443)" fill="#f7a491"/>
            <path id="Path_60358" data-name="Path 60358" d="M2007.551,1073.6s-8.379-4.131-6.767,4.851,13.887,109.986,13.887,109.986l11.5.638s1.468-33.675,1.146-38.511a88.256,88.256,0,0,0-2.228-12.317l-.975-29.874-10.848-36.886Z" transform="translate(-1568.742 -863.989)" fill="#355389"/>
            <path id="Path_60359" data-name="Path 60359" d="M2012.587,1552.126a17.925,17.925,0,0,0,11.1-.429c.55,1.532,1.278,3.454.892,4.562-.474,1.357-1.091,1.96-1.686,1.975-4.709.122-17.306-.009-20.9.037a.576.576,0,0,1-.455-.948c.89-1.045,10.663-4.966,11.047-5.2" transform="translate(-1569.347 -1217.386)" fill="#3c8f7c"/>
            <path id="Path_60360" data-name="Path 60360" d="M1944.7,686.137s-7.084-13.628-8.183-18.631-4.905-30.2-4.584-31.82,6.339-5.527,5.6-6.905-6.475-1.382-7.788-1.263a11.87,11.87,0,0,0-5.079,1.814c-1.13.931,1.27,31.124,1.986,37.624s9.518,26.518,9.518,26.518Z" transform="translate(-1512.659 -537.225)" fill="#f7a491"/>
            <path id="Path_60361" data-name="Path 60361" d="M2210.329,1211.984s5.843-6.126,7.144-8.6c.7-1.326,1.328-4.706,2.782-5.305a3.744,3.744,0,0,1,2.34-.326l15.333,12.039c.836.656-.133.736-1.188.677-1.727-.1-3.027-.288-7.845-1.454-.314-.076-1.558-.23-2-.292a13.425,13.425,0,0,0-3.691.124c-2.053.309-6.83,6-6.83,6Z" transform="translate(-1723.091 -956.863)" fill="#f7a491"/>
            <path id="Path_60362" data-name="Path 60362" d="M2248.271,1207.811a17.93,17.93,0,0,0-8.888-6.658c.538-1.536,1.126-3.544,2.125-4.162,1.222-.755,2.065-.6,2.538-.236,3.734,2.872,13.506,10.729,16.323,12.955a.576.576,0,0,1-.244,1.023c-1.35.251-11.41-2.86-11.854-2.923" transform="translate(-1744.471 -955.955)" fill="#3c8f7c"/>
            <path id="Path_60363" data-name="Path 60363" d="M2066.145,786.3c-3.637-7.627-11.695-11.826-19.5-9.794a17.953,17.953,0,0,0-11.638-7.078c-8.89-1.26-20.361,3.052-19.191,12.33-2.809,6.49-2.12,15.432,3.49,19.816-1.031,8.53,7.524,16.1,17.649,15.077,4.073,5.622,11.155,8.919,17.779,7.635a39.991,39.991,0,0,1,4.419-.815c-.519-.058,11.548,7.843,19.871-6.226,8.492-14.357.13-30.406-12.879-30.945" transform="translate(-1578.77 -641.534)" fill="#184655"/>
            <path id="Path_60364" data-name="Path 60364" d="M2014.207,1070.983s18.79-8.353,19.086-7.4c2.356,7.586,9.686,5.139,14.037,18.5,1.823,5.6,3.693,42.816,3.693,42.816s7.41-6.147,18-16.89c.813-.824,8.773,6.744,8.773,6.744-21.018,28.391-30.084,29.873-33.592,28.283-7.321-3.318-22.768-49.733-22.743-49.728-1.855-3.613-7.252-22.326-7.252-22.326" transform="translate(-1578.77 -858.116)" fill="#466eb6"/>
            <path id="Path_60365" data-name="Path 60365" d="M2132.151,869.405s27.16-.035,32.975-.37c5.263-.3,26.137.228,26.953.133s6.212-9.231,7.109-8.25-3,4.53-1.8,5.451,14.161-1.141,13.989-.184c-.322,1.792-7.879,1.563-7.872,2.428s7.91-.485,8.446.951-7.6.586-7.927,1.226,7.548,1.814,6.742,3.15c-.437.725-6.975-1.212-6.944-.223s4.8,3.238,4.217,4.026-3.744-2.417-6.511-2.457-4.75-1.484-9.168-.272c-2.182.6-18.835,2.634-32.907,3.836-14.426,1.232-26.252,1.624-26.252,1.624Z" transform="translate(-1665.562 -708.971)" fill="#f7a491"/>
            <path id="Path_60366" data-name="Path 60366" d="M1967.3,870.433a34.519,34.519,0,0,1,.694-9.165c-1.319-4.529-4.125-14.191-5.134-16.089,0,0,4.729-9.086,9.57-9.023,0,0,4.944,11.141,8.766,13.134a9.47,9.47,0,0,0,1.923.574c3.69-.026,16.586-.417,18.994-.461l-1.354,18.293c-9.345,18.314-6.814,27.925-3.259,31.48,1.673,1.672-23.319,8.459-24.47,6.09-1.357-2.793-5-26.019-5.728-34.833" transform="translate(-1540.987 -690.802)" fill="#f7cc7f"/>
            <path id="Path_60367" data-name="Path 60367" d="M2086.662,886.965c2.379-1.136,19.593-.567,19.593-.567s2.406,11.985.462,14.865c0,0-15.392,2.29-14.954,3.552Z" transform="translate(-1632.088 -727.671)" fill="#f7cc7f"/>
            <path id="Path_60368" data-name="Path 60368" d="M2037.983,850.039a89.168,89.168,0,0,0,0,9.259c.306,2.722-2.794,9.105-8.565,9.216s-.847-6.124-.341-8.8,1.112-13.166,1.112-13.166Z" transform="translate(-1587.921 -698.447)" fill="#f7a491"/>
            <path id="Path_60369" data-name="Path 60369" d="M2039.128,846.544s-.141,2.434-.343,5.257a6.714,6.714,0,0,0,8.019,1.958c.036-2.024.115-3.72.115-3.72Z" transform="translate(-1596.857 -698.447)" fill="#f47458"/>
            <path id="Path_60370" data-name="Path 60370" d="M2040.992,785.4a9.59,9.59,0,0,1,5.1,4.245c1.834,3.268,2.606,12.572-4.44,16.4s-11.878-2.608-11.556-8.543,2.137-13.76,10.9-12.106" transform="translate(-1590.452 -653.281)" fill="#f7a491"/>
            <path id="Path_60371" data-name="Path 60371" d="M2024.145,815.48c.478,1.47,1.559,2.437,2.416,2.159s1.164-1.7.686-3.166-1.559-2.437-2.415-2.159-1.164,1.7-.687,3.165" transform="translate(-1585.918 -673.222)" fill="#f7a491"/>
            <path id="Path_60372" data-name="Path 60372" d="M2067.667,785.027s3.578,9.782,7.237,10.885,3.277,5.876,3.277,5.876.676-11.034-2.634-13.8a14.694,14.694,0,0,0-7.881-2.958" transform="translate(-1618.11 -653.175)" fill="#184655"/>
            <path id="Path_60373" data-name="Path 60373" d="M2088.146,827.488c-.6,1.507-.252,3.056.767,3.459s2.328-.493,2.924-2,.253-3.056-.767-3.458-2.328.493-2.924,2" transform="translate(-1632.965 -682.88)" fill="#f7a491"/>
            <path id="Path_60374" data-name="Path 60374" d="M1921.621,636.455s7.958.348,8.892.348,3.653-2.811,3.653-2.811Z" transform="translate(-1510.638 -542.025)" fill="#f47458"/>
            <path id="Path_60375" data-name="Path 60375" d="M1863.705,423.85a30.889,30.889,0,1,1-43.031-7.538,30.882,30.882,0,0,1,43.031,7.538" transform="translate(-1426.679 -377.702)" fill="#fae0b2"/>
            <path id="Path_60376" data-name="Path 60376" d="M1873.483,440.551a25.92,25.92,0,1,1-36.109-6.325,25.914,25.914,0,0,1,36.109,6.325" transform="translate(-1440.524 -391.548)" fill="#f7cc7f"/>
            <path id="Path_60377" data-name="Path 60377" d="M1896.957,493.317l-1.13-4.177a21.035,21.035,0,0,1-5.519.485,2.634,2.634,0,0,1-2.5-2.6l0-.167a2.628,2.628,0,0,1,2.79-2.663,15.347,15.347,0,0,0,4.992-.468c2.506-.678,3.96-2.109,3.484-3.867-.451-1.67-2.145-2.345-5.7-2.564-5.133-.31-8.937-1.641-10.091-5.905-1.046-3.869.86-7.639,5.315-9.835l-1.13-4.177,4.31-1.165,1.046,3.869a19.42,19.42,0,0,1,4.169-.506,2.633,2.633,0,1,1-.057,5.266,14,14,0,0,0-4.011.5c-2.858.773-3.448,2.253-3.116,3.484.393,1.451,2.181,1.958,6.3,2.354,5.732.432,8.5,2.279,9.567,6.236,1.058,3.913-.808,8-5.627,10.25l1.213,4.485Z" transform="translate(-1482.224 -411.196)" fill="#fff"/>
            <path id="Path_60378" data-name="Path 60378" d="M1955.287,629.99l3.285-2.952s-1.551-1.853-.906-2.208c1.048-.579,2.842,1.66,2.682,2.2a12.875,12.875,0,0,1-2.087,2.3Z" transform="translate(-1535.412 -535.212)" fill="#f7a491"/>
          </g>
        </g>
      </g>
    </g>
    <g id="Group_35771" data-name="Group 35771" transform="translate(105 48.333)">
      <circle id="Ellipse_2569" data-name="Ellipse 2569" cx="42" cy="42" r="42" transform="translate(89 1299.667)" fill="#f48c7f"/>
      <circle id="Ellipse_2568" data-name="Ellipse 2568" cx="42" cy="42" r="42" transform="translate(89 1292.667)" fill="#466eb6"/>
      <g id="cinema" transform="translate(103.962 1308.453)">
        <path id="Path_60544" data-name="Path 60544" d="M415.827,99.912c0,3.591,4.535,5.466,4.728,5.544a.783.783,0,0,0,.593,0c.191-.079,4.674-1.975,4.722-5.531a3.143,3.143,0,0,0-3-3.249,2.838,2.838,0,0,1-4.051,0A3.128,3.128,0,0,0,415.827,99.912Zm4.294-.7a.789.789,0,0,0,1.455,0,1.442,1.442,0,0,1,1.3-.971A1.57,1.57,0,0,1,424.3,99.9c-.028,2.095-2.573,3.53-3.457,3.966-.885-.433-3.454-1.871-3.454-3.955a1.567,1.567,0,0,1,1.43-1.672A1.442,1.442,0,0,1,420.121,99.211Z" transform="translate(-372.399 -86.578)" fill="#fff"/>
        <path id="Path_60545" data-name="Path 60545" d="M386.59,6.135a.783.783,0,0,0,.593,0c.128-.053,3.146-1.33,3.18-3.777A2.3,2.3,0,0,0,388.171,0,2.081,2.081,0,0,1,385.6,0,2.274,2.274,0,0,0,383.4,2.345C383.4,4.819,386.459,6.083,386.59,6.135ZM385.6,1.567a.636.636,0,0,1,.561.438.789.789,0,0,0,1.455,0,.636.636,0,0,1,.561-.438.7.7,0,0,1,.624.768c-.014,1.012-1.195,1.836-1.911,2.208-.6-.311-1.915-1.116-1.915-2.2A.724.724,0,0,1,385.6,1.567Z" transform="translate(-343.362)" fill="#fff"/>
        <path id="Path_60546" data-name="Path 60546" d="M364.091,187.626a.783.783,0,0,0,.593,0c.128-.053,3.146-1.33,3.179-3.777a2.3,2.3,0,0,0-2.191-2.356,2.081,2.081,0,0,1-2.576,0,2.274,2.274,0,0,0-2.191,2.345C360.905,186.31,363.961,187.574,364.091,187.626Zm-.995-4.569a.636.636,0,0,1,.561.438.789.789,0,0,0,1.455,0,.636.636,0,0,1,.561-.438.7.7,0,0,1,.624.768c-.014,1.012-1.195,1.836-1.911,2.208-.6-.311-1.915-1.116-1.915-2.2A.724.724,0,0,1,363.1,183.058Z" transform="translate(-323.213 -162.536)" fill="#fff"/>
        <path id="Path_60547" data-name="Path 60547" d="M40.734,27.706a12.572,12.572,0,0,0-7.4,2.4l1.829-14.348a2.66,2.66,0,0,0,1.054-5.015,5.006,5.006,0,0,0,.666-2.73,5.176,5.176,0,0,0-5.05-4.894,3.491,3.491,0,0,0-6.68-1.008,3.522,3.522,0,0,0-1.74-.377,3.474,3.474,0,0,0-3.162,2.37,5.423,5.423,0,0,0-1.785-.067,3.507,3.507,0,0,0-5.577-1.325,5.31,5.31,0,0,0-6.71.82A5.036,5.036,0,0,0,4.8,6.682a3.557,3.557,0,0,0-.707-.04,3.489,3.489,0,0,0-2.408,1.1,3.37,3.37,0,0,0-.76,3.353,2.659,2.659,0,0,0,1.561,4.671L6.137,44.4a3.034,3.034,0,0,0,3.011,2.637h9.076v3.154a1.764,1.764,0,0,0,1.762,1.762H34.741A12.617,12.617,0,0,0,44.156,53a.784.784,0,0,0-.424-1.508,11.062,11.062,0,0,1-3,.412A11.317,11.317,0,1,1,51.906,40.589a11.388,11.388,0,0,1-4.726,9.244.784.784,0,0,0,.913,1.273,12.958,12.958,0,0,0,5.38-10.517A12.826,12.826,0,0,0,40.734,27.706ZM2.661,14.2a1.095,1.095,0,0,1,0-2.189H8.877a.783.783,0,0,0,0-1.567s-6.405.005-6.5.015A1.921,1.921,0,0,1,5.249,8.48.79.79,0,0,0,6.42,7.661a3.549,3.549,0,0,1,.9-3.052,3.738,3.738,0,0,1,5.155-.248.783.783,0,0,0,1.157-.14,1.916,1.916,0,0,1,1.5-.815,1.889,1.889,0,0,1,1.979,1.641.8.8,0,0,0,1,.665,3.78,3.78,0,0,1,2.465.128.79.79,0,0,0,1.079-.714A1.881,1.881,0,0,1,23.476,3.3a1.942,1.942,0,0,1,1.586.708.789.789,0,0,0,1.391-.524,1.913,1.913,0,0,1,3.821-.154,1.774,1.774,0,0,1-.041.455.79.79,0,0,0,.879.94,3.808,3.808,0,0,1,.39-.037,3.617,3.617,0,0,1,3.813,3.4,3.466,3.466,0,0,1-.791,2.36H13.05a.783.783,0,0,0,0,1.567H34.987a1.095,1.095,0,0,1,0,2.189H2.661Zm22.995,1.567-.613,6.411a4.817,4.817,0,0,0-2.219-.545,5,5,0,0,0-4,2.078,5,5,0,0,0-4-2.078,4.766,4.766,0,0,0-2.218.549l-.613-6.416ZM9.148,45.472A1.465,1.465,0,0,1,7.691,44.2L4.067,15.769h6.351l.723,7.563a5.891,5.891,0,0,0-1.473,3.936,8.664,8.664,0,0,0,2.424,5.785.783.783,0,0,0,0,.183l1.169,12.235Zm13.646,4.917H19.986a.2.2,0,0,1-.2-.2V45.2a.2.2,0,0,1,.2-.2h2.808Zm.217-6.951H19.986A1.764,1.764,0,0,0,18.224,45.2v.273H14.831L13.8,34.671a20.433,20.433,0,0,0,4.732,2.84.783.783,0,0,0,.593,0,20.636,20.636,0,0,0,4.731-2.887ZM18.82,35.928c-1.437-.655-7.585-3.744-7.585-8.659A3.854,3.854,0,0,1,14.823,23.2,3.606,3.606,0,0,1,18.1,25.6a.789.789,0,0,0,1.455,0,3.606,3.606,0,0,1,3.273-2.4,3.879,3.879,0,0,1,3.588,4.056c-.066,4.874-6.166,8-7.593,8.67Zm8.545,14.46h-3V45h3Zm5.109,0H28.931V45.433A12.937,12.937,0,0,0,32.474,50.388Zm-.915-18.756c0,.011,0,.022,0,.033A12.986,12.986,0,0,0,28.31,43.437H24.585l1-10.481a8.776,8.776,0,0,0,2.392-5.677,5.811,5.811,0,0,0-1.47-3.965l.721-7.546h6.351Z" transform="translate(0 0)" fill="#fff"/>
        <path id="Path_60548" data-name="Path 60548" d="M360.22,354.572a3.936,3.936,0,1,0-3.935,3.973A3.959,3.959,0,0,0,360.22,354.572Zm-3.935,2.407a2.407,2.407,0,1,1,2.369-2.407A2.391,2.391,0,0,1,356.284,356.978Z" transform="translate(-315.55 -313.982)" fill="#fff"/>
        <path id="Path_60549" data-name="Path 60549" d="M371.866,294.939a2.378,2.378,0,1,0-2.378,2.4A2.39,2.39,0,0,0,371.866,294.939Zm-3.189,0a.811.811,0,1,1,.811.83A.822.822,0,0,1,368.678,294.939Z" transform="translate(-328.771 -261.989)" fill="#fff"/>
        <path id="Path_60550" data-name="Path 60550" d="M420.657,313.857a2.376,2.376,0,0,0-1.685.705,2.387,2.387,0,1,0,3.369,0A2.352,2.352,0,0,0,420.657,313.857Zm.57,2.987a.8.8,0,0,1-1.14,0,.843.843,0,0,1,0-1.181.8.8,0,0,1,1.14,0A.843.843,0,0,1,421.228,316.844Z" transform="translate(-374.597 -281.078)" fill="#fff"/>
        <path id="Path_60551" data-name="Path 60551" d="M439.542,367.935a2.378,2.378,0,1,0,2.378-2.4A2.39,2.39,0,0,0,439.542,367.935Zm2.378-.83a.831.831,0,1,1-.811.83A.822.822,0,0,1,441.92,367.1Z" transform="translate(-393.637 -327.362)" fill="#fff"/>
        <path id="Path_60552" data-name="Path 60552" d="M422.56,418.14a2.387,2.387,0,1,0,0,3.383A2.4,2.4,0,0,0,422.56,418.14Zm-1.114,2.282a.8.8,0,0,1-1.14,0,.843.843,0,0,1,0-1.181.8.8,0,0,1,1.14,0A.843.843,0,0,1,421.446,420.422Z" transform="translate(-374.793 -373.852)" fill="#fff"/>
        <path id="Path_60553" data-name="Path 60553" d="M367.42,441.243a2.378,2.378,0,1,0,2.378-2.4A2.39,2.39,0,0,0,367.42,441.243Zm3.189,0a.811.811,0,1,1-.811-.83A.822.822,0,0,1,370.608,441.243Z" transform="translate(-329.047 -393.014)" fill="#fff"/>
        <path id="Path_60554" data-name="Path 60554" d="M318.661,422.325a2.352,2.352,0,0,0,1.684-.705,2.415,2.415,0,0,0,0-3.383,2.352,2.352,0,0,0-1.684-.705,2.376,2.376,0,0,0-1.685.705,2.415,2.415,0,0,0,0,3.383A2.352,2.352,0,0,0,318.661,422.325Zm-.57-2.987a.8.8,0,0,1,1.14,0,.843.843,0,0,1,0,1.181.858.858,0,0,1-1.14,0A.843.843,0,0,1,318.091,419.337Z" transform="translate(-283.253 -373.925)" fill="#fff"/>
        <path id="Path_60555" data-name="Path 60555" d="M294.99,368.247a2.378,2.378,0,1,0,2.378-2.4A2.39,2.39,0,0,0,294.99,368.247Zm2.377-.83a.831.831,0,1,1-.811.83A.822.822,0,0,1,297.367,367.417Z" transform="translate(-264.182 -327.641)" fill="#fff"/>
        <path id="Path_60556" data-name="Path 60556" d="M318.444,318.873a2.351,2.351,0,0,0,1.684-.705,2.415,2.415,0,0,0,0-3.383,2.352,2.352,0,0,0-1.684-.705,2.376,2.376,0,0,0-1.685.705,2.415,2.415,0,0,0,0,3.383A2.352,2.352,0,0,0,318.444,318.873Zm-.57-2.987a.8.8,0,0,1,1.14,0,.843.843,0,0,1,0,1.181.8.8,0,0,1-1.14,0A.843.843,0,0,1,317.873,315.885Z" transform="translate(-283.058 -281.277)" fill="#fff"/>
      </g>
    </g>
    <g id="Group_35772" data-name="Group 35772" transform="translate(115.945 -108.27)">
      <circle id="Ellipse_2569-2" data-name="Ellipse 2569" cx="47" cy="47" r="47" transform="translate(89.055 1300.27)" fill="#f48c7f"/>
      <circle id="Ellipse_2568-2" data-name="Ellipse 2568" cx="47" cy="47" r="47" transform="translate(89.055 1293.27)" fill="#466eb6"/>
      <path id="airplane" d="M7.989,28.927a1.172,1.172,0,0,0-.574,1.535L10.05,36.12a1.17,1.17,0,0,0,1.546.574l19.914-9.3-1.8,18.859a1.172,1.172,0,0,0,.386.984,5.113,5.113,0,0,0,3.093,1.171,3.766,3.766,0,0,0,.925-.117c1.617-.422,2.87-1.862,3.725-4.323l7.837-23.205,15.521-7.24c4.569-2.132,6.923-6.454,5.342-9.828A5.93,5.93,0,0,0,61.956.5a10.858,10.858,0,0,0-6.4.985l-17.911,8.4L18.391,2.349c-2.425-.913-4.346-.89-5.693.083a4.777,4.777,0,0,0-1.746,3.783,1.172,1.172,0,0,0,.5.926l12.967,8.914L17,19.569,4.544,16.405a1.172,1.172,0,0,0-1.3.562l-3.1,5.587A1.172,1.172,0,0,0,.75,24.207l9.219,3.807Zm5.364-23.3a2,2,0,0,1,.7-1.265c.668-.481,1.886-.41,3.514.2l17.15,6.689L26.9,14.906ZM2.811,22.544l2.038-3.62L16.833,21.9a1.173,1.173,0,0,0,.774-.07L56.556,3.637a8.562,8.562,0,0,1,5-.8,3.669,3.669,0,0,1,2.858,1.851C65.4,6.8,63.466,9.881,60.2,11.4L46.7,17.73l.82-2.426a1.191,1.191,0,1,0-2.261-.749L35.622,43.242c-.574,1.629-1.289,2.6-2.085,2.811a1.982,1.982,0,0,1-1.429-.269l2.343-24.6a1.177,1.177,0,0,0-2.343-.222l-.363,3.76-20.1,9.371L9.992,30.579l3.3-1.546a1.171,1.171,0,0,0,0-2.144Zm0,0" transform="translate(99.733 1322.343)" fill="#fff"/>
    </g>
    <g id="Group_35773" data-name="Group 35773" transform="translate(351.945 -173.27)">
      <circle id="Ellipse_2569-3" data-name="Ellipse 2569" cx="47" cy="47" r="47" transform="translate(89.055 1300.27)" fill="#f48c7f"/>
      <circle id="Ellipse_2568-3" data-name="Ellipse 2568" cx="47" cy="47" r="47" transform="translate(89.055 1293.27)" fill="#466eb6"/>
      <g id="gas" transform="translate(104.305 1308.521)">
        <path id="Path_60557" data-name="Path 60557" d="M65.053,59.541l-2.238-5.162a2.954,2.954,0,0,0,.871-3.271l-5.637-15.57a2.1,2.1,0,0,1-.011-1.394l.889-2.576a3.828,3.828,0,0,0-1.674-4.535L39.4,16.546a3.814,3.814,0,0,0-4.08.141L28.454,9.509A5.3,5.3,0,0,0,25.74,8L10.723,4.769A.861.861,0,0,0,9.7,5.431L8.769,9.763a.862.862,0,0,0,.662,1.023L24,13.917a.64.64,0,0,1,.321.177l6.6,6.893-.107.107a3.835,3.835,0,0,0-.906,3.956l11.02,31.618a2.978,2.978,0,0,0,4.2,1.655l7-3.688.542,1.244a2.975,2.975,0,0,0,3.237,1.748l2.146,4.946a.862.862,0,0,0,.791.519.852.852,0,0,0,.345-.071l5.42-2.348a.86.86,0,0,0,.448-1.132ZM25.566,12.9a2.341,2.341,0,0,0-1.2-.672L10.635,9.282,11.2,6.635,25.377,9.683A3.586,3.586,0,0,1,27.211,10.7l6.844,7.151-1.916,1.915ZM54.96,55.869a1.246,1.246,0,0,1-.709-.675l-.909-2.1a.861.861,0,0,0-1.191-.419L44.327,56.8a1.257,1.257,0,0,1-1.772-.7L31.532,24.481a2.1,2.1,0,0,1,.5-2.166l3.961-3.959a2.093,2.093,0,0,1,2.539-.324L56.38,28.52a2.1,2.1,0,0,1,.918,2.487l-.889,2.576a3.822,3.822,0,0,0,.019,2.544L62.065,51.7a1.251,1.251,0,0,1-.647,1.566c-.007,0-.015,0-.023.007l-.037.021-5.3,2.486a.031.031,0,0,0-.012,0l-.021.011-.086.04a1.244,1.244,0,0,1-.979.037Zm4.333,5.23L57.512,57,61.3,55.219l1.829,4.217Z" transform="translate(-2.03 0)" fill="#fff"/>
        <path id="Path_60558" data-name="Path 60558" d="M73.751,39.945l2.609,1.533a.862.862,0,1,0,.873-1.486l-2.609-1.533a.862.862,0,0,0-.873,1.486Z" transform="translate(-34.812 -17.052)" fill="#fff"/>
        <path id="Path_60559" data-name="Path 60559" d="M76.577,65.552a4,4,0,0,0-1.844-2.171l-1.891-1.039a4,4,0,0,0-5.7,4.822l5.785,16.6a.862.862,0,0,0,1.215.479l6.972-3.668a.862.862,0,0,0,.411-1.05Zm-2.357,16.7L68.764,66.594a2.278,2.278,0,0,1,2.15-3.026h.012L75.051,74.34l-.67,2.148a.861.861,0,0,0,.566,1.079.847.847,0,0,0,.257.039.861.861,0,0,0,.822-.6l.76-2.432A.86.86,0,0,0,76.768,74l-3.657-9.55.793.436a2.279,2.279,0,0,1,1.05,1.237L79.648,79.4Z" transform="translate(-31.557 -28.985)" fill="#fff"/>
        <path id="Path_60560" data-name="Path 60560" d="M10.9,37.578c-.251.258-6.152,6.383-6.152,11.208a6.77,6.77,0,0,0,13.54,0c0-4.825-5.9-10.948-6.152-11.206a.886.886,0,0,0-1.236,0Zm.618,16.253a5.052,5.052,0,0,1-5.047-5.045c0-3.3,3.578-7.672,5.047-9.33,1.469,1.654,5.046,6.028,5.046,9.33a5.052,5.052,0,0,1-5.047,5.045Z" transform="translate(0 -16.539)" fill="#fff"/>
      </g>
    </g>
    <g id="Group_35775" data-name="Group 35775" transform="translate(221.433 -283.361)">
      <ellipse id="Ellipse_2569-4" data-name="Ellipse 2569" cx="50" cy="49" rx="50" ry="49" transform="translate(88.568 1301.361)" fill="#f48c7f"/>
      <ellipse id="Ellipse_2568-4" data-name="Ellipse 2568" cx="50" cy="49" rx="50" ry="49" transform="translate(88.568 1293.361)" fill="#466eb6"/>
      <g id="hotel_2_" data-name="hotel (2)" transform="translate(112.117 1312.673)">
        <path id="Path_60588" data-name="Path 60588" d="M39.312,7.81a.949.949,0,0,0-.949.949v2.475H36.745V8.759a.949.949,0,0,0-1.9,0v6.848a.949.949,0,0,0,1.9,0V13.132h1.619v2.475a.949.949,0,0,0,1.9,0V8.759a.949.949,0,0,0-.949-.949Z" transform="translate(-24.691 -3.574)" fill="#fff"/>
        <path id="Path_60589" data-name="Path 60589" d="M51.393,7.81H47.876a.949.949,0,0,0-.949.949v6.848a.949.949,0,0,0,.949.949h3.517a.949.949,0,0,0,.949-.949V8.759a.949.949,0,0,0-.949-.949Zm-.949,6.848H48.826V9.709h1.619Z" transform="translate(-30.219 -3.574)" fill="#fff"/>
        <path id="Path_60590" data-name="Path 60590" d="M63.474,7.81H59.957a.949.949,0,1,0,0,1.9h.809v5.9a.949.949,0,0,0,1.9,0v-5.9h.809a.949.949,0,1,0,0-1.9Z" transform="translate(-35.746 -3.574)" fill="#fff"/>
        <path id="Path_60591" data-name="Path 60591" d="M75.555,9.709a.949.949,0,0,0,0-1.9H72.038a.949.949,0,0,0-.949.949v6.848a.949.949,0,0,0,.949.949h3.517a.949.949,0,0,0,0-1.9H72.988V13.132h2.568a.949.949,0,0,0,0-1.9H72.988V9.709Z" transform="translate(-41.274 -3.574)" fill="#fff"/>
        <path id="Path_60592" data-name="Path 60592" d="M87.634,14.658H85.069v-5.9a.949.949,0,0,0-1.9,0v6.848a.949.949,0,0,0,.949.949h3.515a.949.949,0,0,0,0-1.9Z" transform="translate(-46.802 -3.574)" fill="#fff"/>
        <path id="Path_60593" data-name="Path 60593" d="M67.115,15.322H62.436V.948A.949.949,0,0,0,61.487,0H22.7a.949.949,0,0,0-.949.949V15.324H17.074a.949.949,0,0,0-.949.949v52.21a.949.949,0,0,0,.949.949h50.04a.949.949,0,0,0,.949-.949V16.273a.949.949,0,0,0-.949-.951ZM23.651,1.9H60.538V15.324H23.651ZM49.926,56.753V67.534H43.044V56.753ZM41.145,67.534H34.263V56.753h6.883Zm25.02,0H51.824V55.8a.949.949,0,0,0-.949-.949H33.313a.95.95,0,0,0-.949.949v11.73H18.024V17.221H66.165Z" transform="translate(-16.125 0)" fill="#fff"/>
        <path id="Path_60594" data-name="Path 60594" d="M37.042,38.247H27.074a.949.949,0,0,0-.949.951v6.783a.949.949,0,0,0,.949.949h9.967a.949.949,0,0,0,.949-.949V39.2a.949.949,0,0,0-.949-.951Zm-.949,6.785H28.024V40.146h8.069Z" transform="translate(-20.701 -17.5)" fill="#fff"/>
        <path id="Path_60595" data-name="Path 60595" d="M63.979,38.247H54.011a.949.949,0,0,0-.949.951v6.783a.949.949,0,0,0,.949.949h9.967a.949.949,0,0,0,.949-.949V39.2a.949.949,0,0,0-.949-.951Zm-.949,6.785H54.961V40.146h8.069Z" transform="translate(-33.026 -17.5)" fill="#fff"/>
        <path id="Path_60596" data-name="Path 60596" d="M80,39.2v6.783a.949.949,0,0,0,.949.949h9.967a.949.949,0,0,0,.949-.949V39.2a.949.949,0,0,0-.949-.949H80.949A.949.949,0,0,0,80,39.2Zm1.9.949h8.069v4.886H81.9Z" transform="translate(-45.351 -17.502)" fill="#fff"/>
        <path id="Path_60597" data-name="Path 60597" d="M37.042,58.427H27.074a.949.949,0,0,0-.949.949v6.785a.949.949,0,0,0,.949.949h9.967a.949.949,0,0,0,.949-.949V59.376A.949.949,0,0,0,37.042,58.427Zm-.949,6.785H28.024V60.326h8.069Z" transform="translate(-20.701 -26.734)" fill="#fff"/>
        <path id="Path_60598" data-name="Path 60598" d="M63.979,58.427H54.011a.95.95,0,0,0-.949.949v6.785a.95.95,0,0,0,.949.949h9.967a.949.949,0,0,0,.949-.949V59.376a.949.949,0,0,0-.949-.949Zm-.949,6.785H54.961V60.326h8.069Z" transform="translate(-33.026 -26.734)" fill="#fff"/>
        <path id="Path_60599" data-name="Path 60599" d="M90.917,58.427H80.949a.949.949,0,0,0-.949.949v6.785a.949.949,0,0,0,.949.949h9.967a.949.949,0,0,0,.949-.949V59.376A.949.949,0,0,0,90.917,58.427Zm-.949,6.785H81.9V60.326h8.069Z" transform="translate(-45.351 -26.734)" fill="#fff"/>
        <path id="Path_60600" data-name="Path 60600" d="M37.042,78.608H27.074a.949.949,0,0,0-.949.949v6.785a.949.949,0,0,0,.949.949h9.967a.949.949,0,0,0,.949-.949V79.557A.949.949,0,0,0,37.042,78.608Zm-.949,6.785H28.024V80.507h8.069Z" transform="translate(-20.701 -35.968)" fill="#fff"/>
        <path id="Path_60601" data-name="Path 60601" d="M63.979,78.608H54.011a.95.95,0,0,0-.949.949v6.785a.95.95,0,0,0,.949.949h9.967a.949.949,0,0,0,.949-.949V79.557a.949.949,0,0,0-.949-.949Zm-.949,6.785H54.961V80.507h8.069Z" transform="translate(-33.026 -35.968)" fill="#fff"/>
        <path id="Path_60602" data-name="Path 60602" d="M90.917,78.608H80.949a.949.949,0,0,0-.949.949v6.785a.949.949,0,0,0,.949.949h9.967a.949.949,0,0,0,.949-.949V79.557A.949.949,0,0,0,90.917,78.608Zm-.949,6.785H81.9V80.507h8.069Z" transform="translate(-45.351 -35.968)" fill="#fff"/>
      </g>
    </g>
    <g id="Group_35774" data-name="Group 35774" transform="translate(512.945 -224.27)">
      <circle id="Ellipse_2569-5" data-name="Ellipse 2569" cx="47" cy="47" r="47" transform="translate(89.055 1300.27)" fill="#f48c7f"/>
      <circle id="Ellipse_2568-5" data-name="Ellipse 2568" cx="47" cy="47" r="47" transform="translate(89.055 1293.27)" fill="#466eb6"/>
      <g id="dinner" transform="translate(90.34 1276.985)">
        <path id="Path_60586" data-name="Path 60586" d="M143.714,128a15.714,15.714,0,1,0,15.714,15.714A15.714,15.714,0,0,0,143.714,128Zm0,29.465a13.75,13.75,0,1,1,13.75-13.75A13.75,13.75,0,0,1,143.714,157.465Z" transform="translate(-98.25 -77.197)" fill="#fff"/>
        <path id="Path_60587" data-name="Path 60587" d="M73.947,40H71.983a8.849,8.849,0,0,0-8.839,8.839v2.087A23.568,23.568,0,0,0,29.509,49.17l-.525-8.251a.982.982,0,1,0-1.96.125l.624,9.8a8.292,8.292,0,0,1-3.79.917V40.981a.982.982,0,0,0-1.964,0V51.756a8.317,8.317,0,0,1-3.789-.92l.624-9.792a.982.982,0,1,0-1.96-.125l-.759,11.916a4.575,4.575,0,0,0,3.921,4.8V67.5a.982.982,0,0,0-.982.982V87.142a3.929,3.929,0,0,0,7.857,0V80.915a23.582,23.582,0,0,0,40.268-4.962V87.142a3.929,3.929,0,0,0,7.857,0V40.981A.982.982,0,0,0,73.947,40ZM24.839,87.142a1.964,1.964,0,0,1-3.929,0V69.464h3.929ZM21.893,67.5V57.678h1.964V67.5Zm3.283-11.786h-4.6a2.61,2.61,0,0,1-2.606-2.752,13.114,13.114,0,0,0,4.906.788,13.736,13.736,0,0,0,4.906-.783,2.609,2.609,0,0,1-2.606,2.747ZM60.109,82.406a21.608,21.608,0,0,1-33.3-4.995V68.481a.982.982,0,0,0-.982-.982V57.632a4.575,4.575,0,0,0,3.92-4.8l-.068-1.061A21.6,21.6,0,0,1,63.143,54.1V68.481a.982.982,0,0,0,.982.982h2.746a21.536,21.536,0,0,1-6.763,12.942Zm12.856,4.737a1.964,1.964,0,0,1-3.929,0V69.464h3.929Zm0-19.643H65.108V48.838a6.883,6.883,0,0,1,6.875-6.875h.982Z" fill="#fff"/>
      </g>
    </g>
  </g>
</svg>
